HIERARCHY
ROOT hip
{
  OFFSET 0 0 0
  CHANNELS 6 Xposition Yposition Zposition Zrotation Yrotation Xrotation
  JOINT abdomen
  {
    OFFSET 0 20.6881 -0.73152
    CHANNELS 3 Zrotation Xrotation Yrotation
    JOINT chest
    {
      OFFSET 0 11.7043 -0.48768
      CHANNELS 3 Zrotation Xrotation Yrotation
      JOINT neck
      {
        OFFSET 0 22.1894 -2.19456
        CHANNELS 3 Zrotation Xrotation Yrotation
        JOINT head
        {
          OFFSET -0.24384 7.07133 1.2192
          CHANNELS 3 Zrotation Xrotation Yrotation
          JOINT leftEye
          {
            OFFSET 4.14528 8.04674 8.04672
            CHANNELS 3 Zrotation Xrotation Yrotation
            End Site
            {
              OFFSET 1 0 0
            }
          }
          JOINT rightEye
          {
            OFFSET -3.6576 8.04674 8.04672
            CHANNELS 3 Zrotation Xrotation Yrotation
            End Site
            {
              OFFSET 1 0 0
            }
          }
        }
      }
      JOINT rCollar
      {
        OFFSET -2.68224 19.2634 -4.8768
        CHANNELS 3 Zrotation Xrotation Yrotation
        JOINT rShldr
        {
          OFFSET -8.77824 -1.95073 1.46304
          CHANNELS 3 Zrotation Xrotation Yrotation
          JOINT rForeArm
          {
            OFFSET -28.1742 -1.7115 0.48768
            CHANNELS 3 Zrotation Xrotation Yrotation
            JOINT rHand
            {
              OFFSET -22.5879 0.773209 7.07136
              CHANNELS 3 Zrotation Xrotation Yrotation
              JOINT rThumb1
              {
                OFFSET -1.2192 -0.487915 3.41376
                CHANNELS 3 Zrotation Xrotation Yrotation
                JOINT rThumb2
                {
                  OFFSET -3.37035 -0.52449 3.41376
                  CHANNELS 3 Zrotation Xrotation Yrotation
                  End Site
                  {
                    OFFSET -1.78271 -1.18214 1.43049
                  }
                }
              }
              JOINT rIndex1
              {
                OFFSET -7.75947 0.938293 5.60832
                CHANNELS 3 Zrotation Xrotation Yrotation
                JOINT rIndex2
                {
                  OFFSET -2.54057 -0.884171 1.56538
                  CHANNELS 3 Zrotation Xrotation Yrotation
                  End Site
                  {
                    OFFSET -1.62519 -0.234802 1.16502
                  }
                }
              }
              JOINT rMid1
              {
                OFFSET -8.24714 1.18213 3.41376
                CHANNELS 3 Zrotation Xrotation Yrotation
                JOINT rMid2
                {
                  OFFSET -3.10165 -0.590103 1.0647
                  CHANNELS 3 Zrotation Xrotation Yrotation
                  End Site
                  {
                    OFFSET -2.48547 -0.328903 0.83742
                  }
                }
              }
              JOINT rRing1
              {
                OFFSET -8.82822 0.546677 1.51678
                CHANNELS 3 Zrotation Xrotation Yrotation
                JOINT rRing2
                {
                  OFFSET -2.60934 -0.819778 -0.0198488
                  CHANNELS 3 Zrotation Xrotation Yrotation
                  End Site
                  {
                    OFFSET -2.33842 -0.294052 0.168128
                  }
                }
              }
              JOINT rPinky1
              {
                OFFSET -8.27202 -0.0477905 -0.4584
                CHANNELS 3 Zrotation Xrotation Yrotation
                JOINT rPinky2
                {
                  OFFSET -1.82734 -0.647385 -0.700984
                  CHANNELS 3 Zrotation Xrotation Yrotation
                  End Site
                  {
                    OFFSET -1.69225 -0.51767 -0.607171
                  }
                }
              }
            }
          }
        }
      }
      JOINT lCollar
      {
        OFFSET 2.68224 19.2634 -4.8768
        CHANNELS 3 Zrotation Xrotation Yrotation
        JOINT lShldr
        {
          OFFSET 8.77824 -1.95073 1.46304
          CHANNELS 3 Zrotation Xrotation Yrotation
          JOINT lForeArm
          {
            OFFSET 28.1742 -1.7115 0.48768
            CHANNELS 3 Zrotation Xrotation Yrotation
            JOINT lHand
            {
              OFFSET 22.5879 0.773209 7.07136
              CHANNELS 3 Zrotation Xrotation Yrotation
              JOINT lThumb1
              {
                OFFSET 1.2192 -0.487915 3.41376
                CHANNELS 3 Zrotation Xrotation Yrotation
                JOINT lThumb2
                {
                  OFFSET 3.37035 -0.52449 3.41376
                  CHANNELS 3 Zrotation Xrotation Yrotation
                  End Site
                  {
                    OFFSET 1.78271 -1.18214 1.43049
                  }
                }
              }
              JOINT lIndex1
              {
                OFFSET 7.75947 0.938293 5.60832
                CHANNELS 3 Zrotation Xrotation Yrotation
                JOINT lIndex2
                {
                  OFFSET 2.54057 -0.884171 1.56538
                  CHANNELS 3 Zrotation Xrotation Yrotation
                  End Site
                  {
                    OFFSET 1.62519 -0.234802 1.16502
                  }
                }
              }
              JOINT lMid1
              {
                OFFSET 8.24714 1.18213 3.41376
                CHANNELS 3 Zrotation Xrotation Yrotation
                JOINT lMid2
                {
                  OFFSET 3.10165 -0.590103 1.0647
                  CHANNELS 3 Zrotation Xrotation Yrotation
                  End Site
                  {
                    OFFSET 2.48547 -0.328903 0.83742
                  }
                }
              }
              JOINT lRing1
              {
                OFFSET 8.82822 0.546677 1.51678
                CHANNELS 3 Zrotation Xrotation Yrotation
                JOINT lRing2
                {
                  OFFSET 2.60934 -0.819778 -0.0198488
                  CHANNELS 3 Zrotation Xrotation Yrotation
                  End Site
                  {
                    OFFSET 2.33842 -0.294052 0.168128
                  }
                }
              }
              JOINT lPinky1
              {
                OFFSET 8.27202 -0.0477905 -0.4584
                CHANNELS 3 Zrotation Xrotation Yrotation
                JOINT lPinky2
                {
                  OFFSET 1.82734 -0.647385 -0.700984
                  CHANNELS 3 Zrotation Xrotation Yrotation
                  End Site
                  {
                    OFFSET 1.69225 -0.51767 -0.607171
                  }
                }
              }
            }
          }
        }
      }
    }
  }
  JOINT rButtock
  {
    OFFSET -8.77824 4.35084 1.2192
    CHANNELS 3 Zrotation Xrotation Yrotation
    JOINT rThigh
    {
      OFFSET 0 -1.70687 -2.19456
      CHANNELS 3 Zrotation Xrotation Yrotation
      JOINT rShin
      {
        OFFSET 0 -36.8199 0.73152
        CHANNELS 3 Zrotation Xrotation Yrotation
        JOINT rFoot
        {
          OFFSET 0.73152 -45.1104 -5.12064
          CHANNELS 3 Zrotation Xrotation Yrotation
          End Site
          {
            OFFSET -1.1221 -3.69964 12.103
          }
        }
      }
    }
  }
  JOINT lButtock
  {
    OFFSET 8.77824 4.35084 1.2192
    CHANNELS 3 Zrotation Xrotation Yrotation
    JOINT lThigh
    {
      OFFSET 0 -1.70687 -2.19456
      CHANNELS 3 Zrotation Xrotation Yrotation
      JOINT lShin
      {
        OFFSET 0 -36.8199 0.73152
        CHANNELS 3 Zrotation Xrotation Yrotation
        JOINT lFoot
        {
          OFFSET -0.73152 -45.1104 -5.12064
          CHANNELS 3 Zrotation Xrotation Yrotation
          End Site
          {
            OFFSET 1.1221 -3.69964 12.103
          }
        }
      }
    }
  }
}
MOTION
Frames:	8
Frame Time:	0.00833333
106.023 69.4426 -35.1592 28.8387 -86.513 -14.8971 1.76596 49.3559 -4.82109 -2.0068 -8.75135 -1.7398 1.65671 18.8947 0.559823 3.38437 -68.6355 1.63666 -0.0 0.0 0.0 -0.0 0.0 0.0 2.18854e-14 -3.32894e-12 -7.95014e-14 78.8087 30.2598 3.94301 -18.4506 -11.1795 35.0393 -0.00544019 -2.10269 -0.295648 9.34664e-10 1.42924e-09 4.70193e-10 1.62315e-09 2.47061e-09 8.16281e-10 9.34673e-10 1.42924e-09 4.70176e-10 7.73091 5.47488 0.417314 9.34665e-10 1.42924e-09 4.70187e-10 2.90554 0.965183 0.102902 9.34671e-10 1.42924e-09 4.70194e-10 10.2786 0.731801 0.0259123 9.34659e-10 1.42924e-09 4.70203e-10 2.22167 -0.733487 -0.20892 2.17989e-14 -3.32893e-12 -7.97282e-14 -73.5114 27.6448 -4.35776 17.8127 -10.4865 -33.6018 0.809669 -24.6711 3.70132 -4.13162e-10 9.72666e-10 -7.53786e-10 -7.12449e-10 1.67494e-09 -1.30961e-09 -4.13168e-10 9.72668e-10 -7.53785e-10 -7.73091 5.47488 -0.417314 -4.13165e-10 9.72669e-10 -7.53778e-10 -2.90554 0.965183 -0.102902 -4.13167e-10 9.72667e-10 -7.53782e-10 -10.2786 0.731801 -0.0259123 -4.13156e-10 9.72669e-10 -7.53788e-10 -2.22167 -0.733487 0.20892 -2.03217e-16 0.0 -3.88251e-19 -12.0113 -74.2487 -12.2963 -1.68322 66.3421 1.80278 1.68361 17.7885 -9.92216 2.03217e-16 0.0 3.88251e-19 10.2441 -42.0908 18.1765 3.79352 78.6057 -5.1629 2.8483 18.1814 -7.17802
105.185 69.3743 -35.3133 26.0419 -86.4048 -12.1607 1.93984 49.3195 -4.98643 -2.03512 -8.76087 -1.76046 1.63361 18.9482 0.559114 3.5282 -68.6185 1.74076 -0.0 0.0 0.0 -0.0 0.0 0.0 2.39758e-14 -3.52153e-12 -8.65334e-14 78.7988 30.2793 3.9601 -18.4528 -11.182 35.0444 -0.00555572 -2.1248 -0.298761 8.83705e-10 1.70939e-09 4.91395e-10 1.53597e-09 2.95531e-09 8.53107e-10 8.83716e-10 1.7094e-09 4.9137e-10 7.73091 5.47488 0.417314 8.83705e-10 1.7094e-09 4.9139e-10 2.90554 0.965183 0.102902 8.83714e-10 1.7094e-09 4.91395e-10 10.2786 0.731801 0.0259123 8.83703e-10 1.7094e-09 4.91402e-10 2.22167 -0.733487 -0.20892 2.37775e-14 -3.52152e-12 -8.67823e-14 -73.5415 27.6493 -4.32238 17.8322 -10.5073 -33.6455 0.803696 -24.5868 3.68698 -4.71666e-10 1.28679e-09 -7.81941e-10 -8.15231e-10 2.21868e-09 -1.35861e-09 -4.7167e-10 1.28679e-09 -7.81935e-10 -7.73091 5.47488 -0.417314 -4.71666e-10 1.28679e-09 -7.81931e-10 -2.90554 0.965183 -0.102902 -4.71668e-10 1.28679e-09 -7.81933e-10 -10.2786 0.731801 -0.0259123 -4.71658e-10 1.28679e-09 -7.81938e-10 -2.22167 -0.733487 0.20892 -2.03217e-16 0.0 -3.88251e-19 -11.904 -74.1157 -12.2621 -1.77698 67.2429 1.92825 1.50342 17.4727 -9.3322 2.03217e-16 0.0 3.88251e-19 10.5401 -42.0495 17.8429 4.01651 79.1277 -5.39836 3.14522 19.6811 -7.53669
104.372 69.3024 -35.4659 22.9516 -86.2821 -9.0886 2.15026 49.2594 -5.15164 -2.08057 -8.77762 -1.77763 1.61039 18.9776 0.555071 3.64998 -68.5966 1.81862 -0.0 0.0 0.0 -0.0 0.0 0.0 1.56306e-14 -3.03686e-12 -7.55879e-14 78.7998 30.2979 3.95266 -18.4656 -11.1963 35.0734 -0.00578435 -2.17105 -0.305269 7.20243e-10 1.5529e-09 4.55325e-10 1.2524e-09 2.6849e-09 7.90281e-10 7.20255e-10 1.55291e-09 4.55296e-10 7.73091 5.47488 0.417314 7.20243e-10 1.55291e-09 4.55322e-10 2.90554 0.965183 0.102902 7.20253e-10 1.55291e-09 4.55325e-10 10.2786 0.731801 0.0259123 7.20242e-10 1.55291e-09 4.55331e-10 2.22167 -0.733487 -0.20892 1.53807e-14 -3.03685e-12 -7.58364e-14 -73.5696 27.662 -4.28041 17.8681 -10.5456 -33.725 0.7992 -24.5231 3.67612 -3.70614e-10 1.26056e-09 -6.84961e-10 -6.41302e-10 2.17559e-09 -1.18885e-09 -3.70617e-10 1.26056e-09 -6.84952e-10 -7.73091 5.47488 -0.417314 -3.70613e-10 1.26056e-09 -6.84952e-10 -2.90554 0.965183 -0.102902 -3.70614e-10 1.26056e-09 -6.84951e-10 -10.2786 0.731801 -0.0259123 -3.70606e-10 1.26056e-09 -6.84955e-10 -2.22167 -0.733487 0.20892 -2.03217e-16 0.0 -3.88251e-19 -11.8262 -74.0127 -12.3237 -1.87472 68.0972 2.0537 1.35248 17.1915 -8.82642 2.03217e-16 0.0 3.88251e-19 10.8888 -42.1603 17.5455 4.31812 79.7557 -5.71038 3.47382 21.1589 -7.94663
103.584 69.2275 -35.6158 19.6663 -86.1551 -5.7833 2.42828 49.1569 -5.33126 -2.15058 -8.80315 -1.79146 1.58842 18.969 0.5454 3.73739 -68.555 1.85543 -0.0 0.0 0.0 -0.0 0.0 0.0 -1.3024e-14 -1.29045e-12 -3.14305e-14 78.8208 30.3116 3.90526 -18.4926 -11.2264 35.1348 -0.00620404 -2.25202 -0.316665 3.45218e-10 6.05949e-10 3.14585e-10 5.99579e-10 1.04761e-09 5.45278e-10 3.45229e-10 6.05961e-10 3.14557e-10 7.73091 5.47488 0.417314 3.45218e-10 6.05961e-10 3.14584e-10 2.90554 0.965183 0.102902 3.45226e-10 6.05961e-10 3.14586e-10 10.2786 0.731801 0.0259123 3.45216e-10 6.05963e-10 3.14594e-10 2.22167 -0.733487 -0.20892 -1.32289e-14 -1.29044e-12 -3.16316e-14 -73.6005 27.6864 -4.22187 17.926 -10.6076 -33.8538 0.795679 -24.4729 3.6676 4.32778e-11 6.36534e-10 -3.54758e-10 7.48836e-11 1.10239e-09 -6.10969e-10 4.32752e-11 6.36534e-10 -3.54749e-10 -7.73091 5.47488 -0.417314 4.32796e-11 6.36533e-10 -3.54753e-10 -2.90554 0.965183 -0.102902 4.32768e-11 6.36534e-10 -3.54748e-10 -10.2786 0.731801 -0.0259123 4.32854e-11 6.36537e-10 -3.54752e-10 -2.22167 -0.733487 0.20892 -2.03217e-16 0.0 -3.88251e-19 -11.8189 -73.9531 -12.558 -1.97457 68.8993 2.17648 1.23319 16.9458 -8.42893 2.03217e-16 0.0 3.88251e-19 11.2941 -42.4591 17.2606 4.73969 80.5148 -6.13959 3.84081 22.6195 -8.41387
102.818 69.1524 -35.7645 16.308 -86.0358 -2.378 2.76083 49.0153 -5.52511 -2.24044 -8.83428 -1.80321 1.56806 18.9326 0.531217 3.80769 -68.4959 1.86684 -0.0 0.0 0.0 -0.0 0.0 0.0 -5.63056e-14 1.43198e-12 3.77877e-14 78.8594 30.321 3.82758 -18.5297 -11.2678 35.2195 -0.00679863 -2.35793 -0.331573 -1.93256e-10 -8.92016e-10 9.65605e-11 -3.3828e-10 -1.54249e-09 1.65774e-10 -1.93246e-10 -8.92007e-10 9.65374e-11 7.73091 5.47488 0.417314 -1.93256e-10 -8.92007e-10 9.6562e-11 2.90554 0.965183 0.102902 -1.93251e-10 -8.92007e-10 9.65638e-11 10.2786 0.731801 0.0259123 -1.93259e-10 -8.92005e-10 9.65736e-11 2.22167 -0.733487 -0.20892 -5.6409e-14 1.43198e-12 3.76635e-14 -73.6319 27.7198 -4.15291 18.0008 -10.6879 -34.0215 0.79261 -24.429 3.66015 6.78649e-10 -3.9135e-10 1.49184e-10 1.17474e-09 -6.66441e-10 2.70828e-10 6.78646e-10 -3.9135e-10 1.4919e-10 -7.73091 5.47488 -0.417314 6.78651e-10 -3.91352e-10 1.49182e-10 -2.90554 0.965183 -0.102902 6.78646e-10 -3.9135e-10 1.4919e-10 -10.2786 0.731801 -0.0259123 6.78655e-10 -3.91348e-10 1.49186e-10 -2.22167 -0.733487 0.20892 -2.03217e-16 0.0 -3.88251e-19 -11.8752 -73.9171 -12.9424 -2.07564 69.6545 2.29762 1.13246 16.7165 -8.09799 2.03217e-16 0.0 3.88251e-19 11.7473 -42.9271 16.9803 5.32292 81.392 -6.72828 4.25535 24.1033 -8.93892
102.073 69.0816 -35.9115 12.9602 -85.9327 1.0354 3.08658 48.8745 -5.69968 -2.33699 -8.86991 -1.81159 1.54594 18.8918 0.516854 3.87581 -68.4509 1.87463 -0.0 0.0 0.0 -0.0 0.0 0.0 -9.62602e-14 4.02965e-12 1.03903e-13 78.8971 30.3344 3.74699 -18.5717 -11.3147 35.3154 -0.00748885 -2.47229 -0.347676 -7.08379e-10 -2.32451e-09 -1.12641e-10 -1.23542e-09 -4.01945e-09 -1.98305e-10 -7.08371e-10 -2.32451e-09 -1.12659e-10 7.73091 5.47488 0.417314 -7.0838e-10 -2.32451e-09 -1.12637e-10 2.90554 0.965183 0.102902 -7.08378e-10 -2.32451e-09 -1.12636e-10 10.2786 0.731801 0.0259123 -7.08385e-10 -2.3245e-09 -1.12624e-10 2.22167 -0.733487 -0.20892 -9.62566e-14 4.02964e-12 1.03843e-13 -73.6545 27.7563 -4.09133 18.0827 -10.776 -34.2057 0.79143 -24.4122 3.65729 1.25913e-09 -1.38928e-09 6.28279e-10 2.17973e-09 -2.38441e-09 1.1086e-09 1.25913e-09 -1.38928e-09 6.28281e-10 -7.73091 5.47488 -0.417314 1.25913e-09 -1.38929e-09 6.28269e-10 -2.90554 0.965183 -0.102902 1.25912e-09 -1.38929e-09 6.28281e-10 -10.2786 0.731801 -0.0259123 1.25913e-09 -1.38928e-09 6.28277e-10 -2.22167 -0.733487 0.20892 -2.03217e-16 0.0 -3.88251e-19 -11.9049 -73.8889 -13.3175 -2.17918 70.3714 2.41892 1.04669 16.5191 -7.80797 2.03217e-16 0.0 3.88251e-19 12.2357 -43.5002 16.7588 6.10546 82.3396 -7.51537 4.71156 25.5654 -9.51667
101.344 69.0192 -36.055 9.8319 -85.8506 4.2373 3.34538 48.7746 -5.82231 -2.42706 -8.90894 -1.8153 1.51874 18.8699 0.506629 3.95659 -68.4516 1.90047 -0.0 0.0 0.0 -0.0 0.0 0.0 -1.14934e-13 5.40178e-12 1.38752e-13 78.9153 30.3606 3.69086 -18.6132 -11.3614 35.4106 -0.00816209 -2.57864 -0.362652 -1.01335e-09 -3.07505e-09 -2.26913e-10 -1.76609e-09 -5.31735e-09 -3.97037e-10 -1.01335e-09 -3.07505e-09 -2.26926e-10 7.73091 5.47488 0.417314 -1.01335e-09 -3.07505e-09 -2.26907e-10 2.90554 0.965183 0.102902 -1.01335e-09 -3.07505e-09 -2.26907e-10 10.2786 0.731801 0.0259123 -1.01336e-09 -3.07504e-09 -2.26894e-10 2.22167 -0.733487 -0.20892 -1.14869e-13 5.40177e-12 1.38702e-13 -73.6587 27.7896 -4.05496 18.1617 -10.8616 -34.3839 0.793581 -24.4433 3.66256 1.50835e-09 -1.92346e-09 8.83943e-10 2.61131e-09 -3.30498e-09 1.5544e-09 1.50834e-09 -1.92346e-09 8.83943e-10 -7.73091 5.47488 -0.417314 1.50835e-09 -1.92347e-09 8.83927e-10 -2.90554 0.965183 -0.102902 1.50834e-09 -1.92346e-09 8.83942e-10 -10.2786 0.731801 -0.0259123 1.50835e-09 -1.92346e-09 8.83937e-10 -2.22167 -0.733487 0.20892 -2.03217e-16 0.0 -3.88251e-19 -11.818 -73.8539 -13.524 -2.28696 71.0588 2.54267 0.972527 16.369 -7.53327 2.03217e-16 0.0 3.88251e-19 12.7513 -44.1143 16.6534 7.1385 83.3097 -8.55333 5.2009 26.9616 -10.1404
100.63 68.9682 -36.1958 6.9451 -85.7933 7.1955 3.52707 48.7192 -5.87554 -2.51487 -8.95456 -1.81137 1.48457 18.8714 0.502087 4.04975 -68.5182 1.9471 -0.0 0.0 0.0 -0.0 0.0 0.0 -9.86469e-14 4.92982e-12 1.27108e-13 78.9138 30.404 3.65573 -18.6573 -11.4112 35.5116 -0.00882901 -2.68286 -0.377329 -1.04305e-09 -2.8197e-09 -2.09979e-10 -1.81623e-09 -4.87607e-09 -3.6717e-10 -1.04304e-09 -2.81969e-09 -2.09988e-10 7.73091 5.47488 0.417314 -1.04305e-09 -2.81969e-09 -2.09971e-10 2.90554 0.965183 0.102902 -1.04304e-09 -2.81969e-09 -2.09974e-10 10.2786 0.731801 0.0259123 -1.04305e-09 -2.81969e-09 -2.09962e-10 2.22167 -0.733487 -0.20892 -9.85911e-14 4.92981e-12 1.26974e-13 -73.6444 27.8213 -4.04172 18.2411 -10.9484 -34.5629 0.800974 -24.5491 3.68052 1.25195e-09 -1.78227e-09 8.06226e-10 2.16791e-09 -3.06458e-09 1.41509e-09 1.25195e-09 -1.78227e-09 8.06224e-10 -7.73091 5.47488 -0.417314 1.25195e-09 -1.78228e-09 8.06206e-10 -2.90554 0.965183 -0.102902 1.25195e-09 -1.78228e-09 8.06222e-10 -10.2786 0.731801 -0.0259123 1.25196e-09 -1.78228e-09 8.06214e-10 -2.22167 -0.733487 0.20892 -2.03217e-16 0.0 -3.88251e-19 -11.5557 -73.8168 -13.4906 -2.39701 71.7093 2.66721 0.910918 16.2846 -7.27046 2.03217e-16 0.0 3.88251e-19 13.3269 -44.7735 16.6965 8.588 84.3176 -10.0095 5.76035 28.3801 -10.856
